<svg viewBox="0 0 72 72" xmlns="http://www.w3.org/2000/svg" xmlns:xlink="http://www.w3.org/1999/xlink"><radialGradient id="a" cx="-48.031" cy="372.288" gradientTransform="matrix(1.5816 -.5582 .2625 .7083 10.417 -265.37)" gradientUnits="userSpaceOnUse" r="1.824"><stop offset=".003" stop-color="#f7adaf" stop-opacity=".97"/><stop offset=".408" stop-color="#f7b0af" stop-opacity=".576"/><stop offset=".732" stop-color="#f7baaf" stop-opacity=".261"/><stop offset="1" stop-color="#f8c9b0" stop-opacity="0"/></radialGradient><radialGradient id="b" cx="-142.601" cy="309.194" gradientTransform="matrix(1.256 -.3915 .2072 .7155 155.763 -255.255)" gradientUnits="userSpaceOnUse" r="1.824"><stop offset="0" stop-color="#f7adaf" stop-opacity=".97"/><stop offset=".406" stop-color="#f7b0af" stop-opacity=".576"/><stop offset=".732" stop-color="#f7baaf" stop-opacity=".261"/><stop offset="1" stop-color="#f8c9b0" stop-opacity="0"/></radialGradient><path d="m42.32 13.8c.01 0 .02-.01.03-.01l-.01-.03c-.01.02-.01.03-.02.04z"/><path d="m55.8 42.32c-1.17-5.21-3.54-9.61-6.07-11.29.88-1.65 1.12-3.6.68-5.51-.43-1.85-1.49-3.52-2.91-4.58-1.05-.78-2.21-1.17-3.22-1.44-.69-1.78-1.12-2.4-1.4-2.66.77-1.08 1.11-2.25.84-2.96-.12-.31-.34-.54-.63-.65.37-1.6-.03-3.04-.22-3.6-.37-1.07-.97-1.89-1.61-2.18l-.3-.15-.31.14c-.31.14-.62.4-.94.75-.66-2.35-2.63-4.97-5.3-5.65l-.21-.05-.21.08c-.78.28-1.31.99-1.58 2.11-.4-.51-.85-1.01-1.33-1.45-1.55-1.42-3.25-2.21-4.79-2.21-.56 0-1.1.1-1.62.3l-.35.14-.09.36c-.42 1.64.29 3.46 1.05 4.81-1.13-.4-2.31-.62-3.45-.62-1.87 0-3.4.57-4.3 1.62l-.25.28.09.37c.44 1.81 2.02 3.28 2.82 3.92-.94.19-1.82.48-2.57.85-1.51.75-2.44 1.78-2.69 2.98l-.08.39.29.28c.94.91 2.57 1.24 3.89 1.35-1.25 1.27-3.03 3.5-2.81 5.83l.03.32.25.19c.71.54 1.7.8 3.04.8.16 0 .33 0 .51-.01-.15.36-.19.72-.11 1.08.28 1.25.93 3.16 1.43 3.89.5.74 1.24 1.18 2.2 1.32-2.43.8-5.28 1.78-6.6 2.42-4.13 1.97-4.21 6.06-.3 15.1.16.51 2.59 4.73 3.95 6.39.88 4.01 1.78 7.96 2.4 10.62-1.22.11-2.06 1.11-2.06 2.48 0 .63.21 1.78.24 1.9l.11.59h13.75l.33-4.92.01-.22.15-1.8h1.57l.13 1.38.43 5.56h14.7l.11-.59c.02-.13.24-1.27.24-1.9 0-1.47-.94-2.49-2.29-2.49h-.85c.03-.17.05-.34.08-.52l.09-.55-.06-.03c.26-1.72.57-3.74.9-5.92.08-.52.17-1.05.27-1.57a11.5 11.5 0 0 0 1.71-.34c3.44-1.01 5.12-4.43 5.54-7.29.43-3.14-.47-6.06-2.32-7.45zm1.73 7.37c-.39 2.69-1.95 5.89-5.13 6.83-.5.15-1.02.25-1.57.32.02.03.04.07.04.12 0 .11-.09.19-.19.19h-.35c-.11.57-.22 1.16-.31 1.75-.36 2.35-.69 4.52-.96 6.32.02.02.04.03.05.05h.01v.01c.03.05.03.11 0 .16a.21.21 0 0 1 -.04.06c-.06.36-.12.72-.17 1.07h1.52c1.03 0 1.72.77 1.72 1.92 0 .59-.22 1.75-.23 1.8l-.02.13h-13.7l-.38-4.93-.02-.02a.182.182 0 0 1 0-.2l-.17-1.79h-2.62l-.2 2.43c.04.06.05.14.01.21 0 .01-.01.01-.02.02l-.29 4.27h-12.74l-.02-.13c-.01-.05-.23-1.21-.23-1.8 0-1.15.69-1.92 1.72-1.92h.48c-.08-.34-.16-.7-.25-1.07-.01-.02-.03-.03-.04-.05a.225.225 0 0 1 -.01-.14c-.31-1.36-.67-2.94-1.05-4.63-.07.01-.13.02-.19.03h-.02c-.1 0-.18-.07-.19-.17-.01-.11.06-.2.17-.21.05-.01.1-.01.15-.02-.34-1.5-.69-3.07-1.04-4.67-.49-.53-.84-.92-.88-.96a.19.19 0 0 1 .02-.27c.04-.03.08-.05.12-.05-1.16-1.5-2.13-3.05-2.94-4.73-.17-.13-.28-.35-.35-.7a.21.21 0 0 1 -.06-.18c-4.27-9.87-3.15-12.8.03-14.32 1.11-.53 3.33-1.32 5.56-2.07a.21.21 0 0 1 .08-.11c.07-.05.16-.04.23.01.77-.26 1.54-.51 2.26-.74-.05-.07-.08-.1-.08-.11a.2.2 0 0 1 .04-.27.2.2 0 0 1 .27.04c.01.02.07.09.15.21.51-.16.99-.31 1.42-.45-.06-.17-.12-.34-.17-.52-1.05.37-1.97.56-2.74.56-1.09 0-1.9-.38-2.4-1.12-.45-.66-1.08-2.5-1.35-3.7-.13-.58.22-1.14.79-1.65-.64.09-1.22.13-1.73.13-1.19 0-2.09-.23-2.69-.68l-.05-.04-.01-.07c-.13-1.36.52-2.93 1.9-4.55.66-.78 1.35-1.4 1.76-1.74h-.18c-1.29 0-3.61-.16-4.72-1.24l-.06-.06.02-.08c.21-1.02 1.04-1.91 2.39-2.58 1.09-.54 2.43-.89 3.85-1-1.32-.74-3.34-2.52-3.8-4.42l-.03-.11.06-.06c.8-.92 2.17-1.42 3.87-1.42 1.75 0 3.59.54 5.06 1.45-.29-.38-.63-.86-.95-1.39-1.09-1.82-1.48-3.39-1.16-4.67l.02-.08.08-.03c.45-.17.92-.26 1.41-.26 2.85 0 5.56 2.9 6.49 4.72.04-1.02.22-2.78 1.4-3.22l.05-.02.05.01c2.84.73 4.96 4 5.12 6.56.33-.57.9-1.41 1.51-1.69l.07-.03.07.03c.49.23.99.94 1.31 1.85.22.63.62 2.16.06 3.78.13-.03.35-.05.54.1.07.06.13.14.18.23.03.04.06.1.08.15.12.31.04.83-.2 1.4-.01.03-.03.07-.04.1s-.03.06-.04.09l-.03.06c-.22.45-.53.91-.92 1.33.15 0 .28.03.39.09.37.2.87 1.15 1.49 2.81 1.09.28 2.27.64 3.32 1.42 1.86 1.39 2.94 3.43 3.01 5.6v.28c0 .07 0 .15-.01.22 0 .04 0 .09-.01.13 0 .06-.01.12-.01.18 0 .04-.01.09-.01.13-.01.05-.01.1-.02.15v.01c-.1.82-.39 1.95-1.15 3.16 2.51 1.32 5.04 5.81 6.25 11.13.12.06.25.12.37.19.09.05.13.17.08.26-.02.03-.04.05-.06.07 1.57 1.33 2.32 3.93 1.9 6.81z"/><path d="m42.96 15.58c-.01.03-.03.06-.04.09.01-.03.03-.06.04-.09zm12.09 26.72c.06.03.12.05.18.08-1.21-5.31-3.73-9.81-6.25-11.13-.03.04-.05.09-.08.13 2.56 1.33 4.99 5.89 6.15 10.92zm-4.87-15.03c0 .07 0 .15-.01.22.01-.07.01-.14.01-.22zm-1.07 37.99h-.01l.01.01zm-.2.29c-.07.42-.13.81-.19 1.17h1.71c.97 0 1.56.72 1.56 1.77 0 .58-.22 1.77-.22 1.77h-1c0 .03-.01.05-.01.08h-.3c0-.03.01-.05.01-.08h-1.42c0 .03-.01.05-.01.08h-.3c0-.03.01-.05.01-.08h-1.42c0 .03-.01.05-.01.08h-.3c0-.03.01-.05.01-.08h-8.7l-.36-4.7c-.06 0-.12-.02-.16-.07l.38 4.93h13.7l.02-.13c.01-.05.23-1.21.23-1.8 0-1.15-.69-1.92-1.72-1.92h-1.52c.06-.34.12-.7.17-1.07-.04.04-.1.06-.16.05zm-7.17-48.31c.21-.03.4-.02.54.05.42.23 1.03 1.7 1.38 2.63.06.02.12.03.18.05-.62-1.66-1.12-2.6-1.49-2.81a.776.776 0 0 0 -.39-.09c.39-.42.7-.88.92-1.33-.3.6-.76 1.13-1.14 1.5zm-7.09 48.97h-.01l-.27 4.04h-7.72c0 .03.01.05.01.08h-.3c0-.03-.01-.05-.01-.08h-1.42c0 .03.01.05.01.08h-.3c0-.03-.01-.05-.01-.08h-1.42c0 .03.01.05.01.08h-.3c0-.03-.01-.05-.01-.08h-1.02s-.22-1.18-.22-1.77c0-1.04.6-1.77 1.56-1.77h.68c-.02-.1-.05-.2-.07-.3l-.03-.12c-.01-.06-.03-.12-.04-.19 0-.02-.01-.04-.01-.06-.02-.07-.03-.14-.05-.22a.355.355 0 0 1 -.02-.1c-.01-.06-.03-.12-.04-.17v-.01a.183.183 0 0 1 -.17-.06c.09.37.17.73.25 1.07h-.48c-1.03 0-1.72.77-1.72 1.92 0 .59.22 1.75.23 1.8l.02.13h12.74l.29-4.27c-.05.05-.1.08-.16.08zm3.2-1.02.08-.05-.17-1.83h-2.91l-.21 2.48.09.05c.02.01.04.03.06.05l.2-2.43h2.62l.17 1.79c.03-.02.05-.04.07-.06zm-15.42-4.96c-.01-.07-.03-.13-.04-.2-.01-.05-.02-.1-.04-.16-.02-.07-.03-.15-.05-.22-.01-.06-.03-.11-.04-.17s-.03-.13-.04-.19-.03-.12-.04-.18c-.02-.07-.03-.14-.05-.21-.01-.06-.03-.13-.04-.19s-.03-.12-.04-.18c-.02-.07-.03-.14-.05-.21-.01-.06-.03-.12-.04-.18v-.01c-.04-.2-.09-.39-.13-.59-.01-.05-.02-.1-.03-.14-.02-.08-.03-.15-.05-.23-.01-.06-.03-.11-.04-.17-.02-.08-.03-.15-.05-.23l-.03-.15c-.02-.07-.03-.15-.05-.22-.01-.06-.03-.13-.04-.19-.01-.07-.03-.13-.04-.2-.01-.05-.02-.1-.03-.16-.07-.08-.14-.15-.21-.22.35 1.59.7 3.17 1.04 4.67l.15-.03c-.01-.02-.02-.03-.02-.04zm.67-27.95s.01.02.03.04c.43-.15 1.5-.53 2.24-.75-.02-.03-.04-.05-.06-.08-.72.23-1.49.48-2.26.74.03.02.04.04.05.05zm-5.83 16.29c-4.08-9.48-3.2-12.49 0-14.02 1.1-.53 3.32-1.32 5.52-2.05a.184.184 0 0 1 -.02-.16c-2.24.75-4.45 1.53-5.56 2.07-3.18 1.52-4.3 4.45-.03 14.32.01-.03.02-.05.03-.07zm38.34-5.67c-.03.02-.07.03-.11.03-.03 0-.06-.01-.09-.02-.04-.02-.08-.04-.13-.07 3.76 2.66 2.65 11.88-2.93 13.52-.69.2-1.39.32-2.11.37v.02c.14 0 .29.01.43.01.06 0 .12.03.15.08.54-.07 1.07-.17 1.57-.32 3.18-.93 4.74-4.14 5.13-6.83.43-2.88-.32-5.48-1.91-6.79zm-12.44-28.02c-.03.2-.09.4-.17.6.24-.57.31-1.09.2-1.4a.53.53 0 0 0 -.08-.15c.09.22.12.54.05.95zm6.98 13.05c-.01.05-.01.1-.02.15.01-.04.01-.09.02-.15zm-26.62 37.25.03-.01v-.02c-.02-.07-.03-.14-.05-.21-.01-.04-.02-.08-.03-.11-.02-.07-.03-.14-.05-.2a.355.355 0 0 1 -.02-.1c-.02-.07-.03-.14-.05-.21-.01-.04-.02-.08-.03-.11l-.15-.63-.03-.14c-.02-.07-.03-.13-.05-.2l-.03-.14c-.01-.06-.03-.12-.04-.18s-.03-.12-.04-.17c-.01-.06-.03-.12-.04-.18s-.03-.12-.04-.18-.03-.11-.04-.17c-.01-.05-.02-.11-.04-.17-.01-.06-.03-.12-.04-.18-.01-.07-.03-.13-.04-.2-.01-.05-.02-.11-.04-.16-.01-.06-.03-.11-.04-.17-.02-.07-.03-.14-.05-.21-.03-.15-.07-.3-.1-.45v-.02l-.15.03c.38 1.69.74 3.27 1.05 4.63.02-.07.06-.12.11-.14zm-2.87-10.77c.01.01.26.29.63.69 0-.02-.01-.03-.01-.05a25.978 25.978 0 0 1 -3.84-6.1c-.03.01-.05.02-.08.02-.04 0-.08-.01-.12-.04-.01 0-.01-.01-.01-.01.07.34.18.57.35.7a26.08 26.08 0 0 0 2.94 4.73c.04-.01.1.01.14.06zm.61-30c.03-.03.06-.06.1-.08-1.59.22-3.4.28-4.44-.51-.31-3.22 3.95-6.45 3.95-6.45s-3.78.24-5.25-1.18c.43-2.04 3.48-3.4 6.71-3.5-1.14-.42-3.75-2.43-4.27-4.58 1.87-2.15 6.87-1.66 9.71.76 0 0-3.61-3.88-2.85-6.87 3.51-1.35 7.43 3.12 7.98 5.03.07-.17-.21-3.22 1.32-3.78 2.98.76 5.2 4.44 4.99 7.04 0 0 .83-1.77 1.73-2.18 1.05.48 2.3 3.53 1.05 6.03.24-.15.44-.23.6-.25-.1-.01-.2.03-.2.03l-.05-.13c-.01 0-.02.01-.03.01.01-.01.01-.03.01-.04l-.05-.13c.01 0 .05-.02.12-.03.56-1.62.16-3.15-.06-3.78-.32-.91-.82-1.62-1.31-1.85l-.07-.03-.06.02c-.61.28-1.18 1.12-1.51 1.69-.16-2.56-2.27-5.83-5.12-6.56l-.05-.01-.04.02c-1.18.44-1.36 2.2-1.39 3.21-.94-1.82-3.65-4.72-6.49-4.72-.49 0-.96.09-1.41.26l-.09.03-.02.08c-.33 1.28.06 2.85 1.16 4.67.32.53.66 1.01.95 1.39-1.47-.91-3.31-1.45-5.06-1.45-1.7 0-3.07.5-3.87 1.42l-.06.07.02.08c.46 1.9 2.48 3.68 3.8 4.42-1.42.11-2.77.46-3.85 1-1.35.67-2.17 1.56-2.39 2.58l-.02.08.06.06c1.11 1.08 3.44 1.24 4.72 1.24h.18c-.41.34-1.09.96-1.76 1.74-1.37 1.62-2.03 3.19-1.9 4.55l.01.07.05.04c.6.45 1.5.68 2.69.68.52 0 1.09-.04 1.73-.13.02-.01.03-.03.05-.04zm28.9 3.22c0 .06-.01.12-.01.18 0-.06.01-.12.01-.18zm-22.99 3.45c-.02-.05-.03-.1-.05-.15-.43.14-.91.29-1.42.45.03.04.06.08.1.13.5-.16.96-.31 1.37-.43zm22.98 26.06c-.07.34-.13.7-.19 1.06-.04.22-.07.44-.11.67l-.12.8-.03.21-.12.78c-.02.12-.03.23-.05.34-.04.3-.09.59-.13.87-.02.1-.03.2-.05.3-.04.24-.07.48-.11.72l-.06.37c-.03.23-.07.45-.1.67-.02.14-.04.29-.07.43-.04.27-.08.53-.12.78l.11.05c.02.01.03.02.04.03.27-1.8.6-3.97.96-6.32.09-.59.19-1.17.31-1.75-.05-.01-.1-.01-.16-.01z"/><path d="m30.35 36.99c1.22 1.27 1.9 2.81 2.13 3.39.37-.23 1.21-.74 2.28-1.23l-2.34-2.34c-.78-.32-1.5-.74-2.16-1.27-1.37-1.09-2.42-2.63-3.08-4.46-.41.13-.87.27-1.38.44.67.93 2.47 3.5 3.03 4.8.01.03.02.06.01.09.63 0 1.13.19 1.51.58zm-5.51 4.94-1.46-2.62a.185.185 0 0 1 .04-.24c.07-.06 1.1-.92 2.39-1.65-.95-1.93-3-4.89-3.02-4.92-2.2.74-4.42 1.52-5.52 2.05-3.2 1.53-4.08 4.54 0 14.02l1.24-1.63a.19.19 0 0 1 .15-.08l3.98.01.94-1.98-.25-3.03zm20.71.51c-.03.04-.07.1-.13.18l.2-.2c-.02.01-.05.02-.07.02zm-1.97-2.49c.99.89 1.7 1.79 1.93 2.1.49-.14 2.21-.59 4.31-.65-.16-.55-.33-1.06-.51-1.54a.235.235 0 0 1 -.05-.13c-.87-2.27-1.82-3.58-1.84-3.59-.06-.09-.05-.21.04-.27s.21-.05.27.04c.05.06.91 1.24 1.75 3.32.21-.49.5-1.42.45-2.64 0-.11.08-.2.19-.2.11-.01.2.08.2.19.06 1.67-.46 2.81-.64 3.15.19.51.37 1.06.54 1.66 1.55-.01 3.26.21 4.83.91-1.17-5.03-3.6-9.59-6.15-10.92-.98 1.51-2.69 3.15-5.67 4.49l-1.13 2.93c.48.31.97.69 1.48 1.15zm-20.55 22.94c-.01-.06-.03-.12-.04-.17.02.06.03.12.04.17zm-.07-.34c-.01-.06-.03-.12-.04-.18.01.06.02.12.04.18zm.15.67-.03-.14c.01.04.02.09.03.14zm-.31-1.37c-.01-.07-.03-.13-.04-.2.01.07.02.14.04.2zm-.17-.74c-.03-.15-.07-.3-.1-.45.03.15.07.3.1.45zm.09.38c-.01-.06-.03-.12-.04-.17.01.06.02.12.04.17zm.47 2.07-.03-.14zm26.4-2.91c-.02.12-.03.23-.05.34.02-.11.03-.23.05-.34zm.15-.99-.03.21zm-26.18 5.51v-.02c-.01.01-.01.01 0 .02zm.21.94c0-.02-.01-.04-.01-.06 0 .02.01.04.01.06zm.07.31-.03-.12zm14.1-1.28-.17-1.83zm11.31-2.26-.06.37c.02-.12.04-.24.06-.37zm-26.82-2.65c-.01-.07-.03-.13-.04-.2.01.07.03.13.04.2zm-.9-4.03c-.01-.07-.03-.13-.04-.2.01.07.03.14.04.2zm.09.42c-.02-.07-.03-.15-.05-.22.02.07.04.14.05.22zm1.22 5.41c.01.06.03.11.04.17-.02-.06-.03-.11-.04-.17zm.64 2.8c.01.04.02.08.03.11-.02-.04-.02-.07-.03-.11zm-1.77-7.83c-.02-.08-.03-.15-.05-.23.01.07.03.15.05.23zm1.7 7.52c.01.03.02.07.02.1a.296.296 0 0 1 -.02-.1zm-1.32-5.81c-.01-.06-.03-.12-.04-.18.01.06.03.12.04.18zm.09.4c-.02-.07-.03-.14-.05-.21.02.07.03.14.05.21zm.08.37c-.01-.06-.03-.13-.04-.19.01.07.03.13.04.19zm.09.39c-.02-.07-.03-.15-.05-.22.02.08.03.15.05.22zm-.56-2.48c-.02-.08-.03-.15-.05-.23.02.08.04.16.05.23zm.17.74c-.04-.2-.09-.39-.13-.59.04.19.08.39.13.59zm.04.19c-.01-.06-.03-.12-.04-.18.01.06.03.12.04.18zm1.64 7.23v.01zm25.72-3.39c.01-.1.03-.2.05-.3-.02.1-.03.2-.05.3zm-.33 2.2c.02-.14.04-.28.07-.43-.03.14-.05.28-.07.43zm.94-6.16c.06-.36.13-.72.19-1.06h-.04l-.15 1.01zm.21-1.45h.06v-.02h-.06c.01.01 0 .01 0 .02z" fill="#f05a28"/><path d="m23.33 41.86.25 3.03.69-1.45c.02-.04.06-.08.1-.09l1.02-.43-.55-.99z" fill="#f05a28"/><path d="m39.09 37.88c.83-.06 1.72.18 2.66.71l.97-2.49c-.01 0-.01.01-.02.01-2.26.94-4.41 1.42-6.38 1.42-1.08 0-2.08-.14-3.02-.42l1.86 1.86c1.18-.52 2.58-.99 3.93-1.09z" fill="#29b473"/><path d="m35.15 38.97-1.86-1.86c-.3-.09-.59-.19-.88-.31l2.34 2.34c.14-.05.27-.11.4-.17zm6.95-.17 1.14-2.92c-.17.08-.34.15-.52.23l-.97 2.49c.11.06.23.13.35.2z"/><path d="m23.68 65.73c.01.03.02.07.02.1.02.07.03.14.05.22 0 .02.01.04.01.06.01.06.03.12.04.19l.03.12c.02.1.05.2.07.3h.02l-.28-1.17h-.01v.01c.03.05.04.11.05.17zm1.7-34.15c-.74.22-1.81.59-2.24.75.26.37 2.11 3.08 3.02 4.91.75-.39 1.56-.72 2.31-.81-.6-1.35-2.56-4.11-3.09-4.85zm18.59 28.69-.16.14-.11-.18c-1.67-2.8-5.92-5.39-7.67-6.38-2.85 2.44-6.9 5.26-8.36 5.54-.44.08-.8.13-1.11.13-.43 0-.77-.08-1.15-.26-.96.75-2.07 1.22-2.9 1.39v.02c.03.15.07.3.1.45.02.07.03.14.05.21.01.06.03.12.04.17s.02.11.04.16c.02.07.03.13.04.2.01.06.03.12.04.18s.03.11.04.17.03.11.04.17.03.12.04.18.03.12.04.18.03.12.04.17c.01.06.03.12.04.18l.03.14c.02.07.03.14.05.2a30.164 30.164 0 0 0 .21.88c.02.07.03.14.05.21.01.03.02.07.02.1.02.07.03.14.05.2.01.04.02.08.03.11.02.07.03.14.05.21v.02l1.41-.64c.06-.03.12-.02.18.01l1.56.92 2.01-.9a.19.19 0 0 1 .18.01l1.75 1.07 2.04-.93c.06-.03.12-.02.18.01l1.8 1.07.21-2.48h2.91l.17 1.83 1.23-.79c.06-.04.14-.04.2 0l1.56.92 2.16-.93a.22.22 0 0 1 .16 0l1.94.93 1.94-.86a.22.22 0 0 1 .16 0l1.62.72c.04-.25.08-.51.12-.78.02-.14.04-.28.07-.43.03-.22.07-.44.1-.67l.06-.37c.04-.24.07-.48.11-.72.01-.1.03-.2.05-.3.04-.29.09-.58.13-.87.02-.11.03-.23.05-.34l.12-.78.03-.21.12-.8c.03-.23.07-.45.11-.67 0-.02.01-.04.01-.06l.15-1.01c-1.08-.03-2.14-.17-3.15-.36-.78 1.14-1.8 2.43-3.03 3.52zm-22.52-4.42c.01.05.02.1.03.16.01.07.03.13.04.2.01.06.03.13.04.19.02.07.03.15.05.22l.03.15c.02.08.03.15.05.23.01.06.03.11.04.17.02.08.03.15.05.23.01.05.02.1.03.14.04.2.09.39.13.59v.01c.01.06.03.12.04.18.02.07.03.14.05.21.01.06.03.12.04.18s.03.13.04.19c.02.07.03.14.05.21.01.06.03.12.04.18s.03.13.04.19.03.11.04.17c.02.07.03.15.05.22.01.05.02.1.04.16.01.07.03.13.04.2 0 .01.01.02.01.04.69-.15 1.7-.55 2.61-1.21-.2-.12-.41-.26-.65-.42-.74-.52-2.01-1.82-2.93-2.79zm-.17-.8c0 .02.01.03.01.05l.38.41c-.13-.15-.26-.31-.39-.46zm28.79 1.69h.11v-.01c-.03.01-.07.01-.11.01z" fill="#7f2719"/><path d="m36.32 53.61c.64.36 1.57.91 2.57 1.59 2.39 1.62 4.07 3.19 5 4.67 1.09-1 2.01-2.15 2.71-3.17-4.76-1.01-8.58-3.41-9.37-3.92-.14.14-.28.27-.41.39z" fill="#8b5667"/><path d="m43.89 59.87c-.94-1.48-2.62-3.05-5-4.67-1-.68-1.93-1.23-2.57-1.59-.09.08-.19.16-.28.24 1.75.98 6 3.57 7.67 6.38l.11.18.16-.14c1.23-1.09 2.25-2.38 3-3.5-.12-.02-.25-.05-.37-.08-.71 1.03-1.63 2.18-2.72 3.18z"/><path d="m48.9 41.85c-1.61.14-2.88.46-3.28.57l-.2.2c-.23.32-.69.95-1.29 1.76-.65.92-1.51 2.09-2.57 3.37-1.36 1.73-2.84 3.51-4.05 4.74 1.11.72 6.52 4.04 12.56 4.25.04 0 .07 0 .11-.01h.06c.71-.05 1.42-.17 2.11-.37 5.58-1.64 6.69-10.86 2.93-13.52-2.11-1.08-4.62-1.14-6.38-.99z" fill="#f8c9b0"/><path d="m25.42 59.25c-.12-.06-.25-.13-.38-.2-.91.66-1.92 1.07-2.61 1.21l-.15.03c-.05.01-.1.02-.15.02a.19.19 0 0 0 -.17.21c.01.1.09.17.19.17h.02c.06-.01.12-.02.19-.03l.15-.03c.84-.16 1.95-.63 2.91-1.38z"/><path d="m39.12 38.27c-3.06.22-6.59 2.54-6.63 2.57-.01.01-.03.02-.04.02-1.04.49-5.57 4.14-5.62 4.18-1.22.98-1.6 1.21-1.62 1.22a.196.196 0 0 1 -.27-.06.198.198 0 0 1 .07-.27s.36-.22 1.44-1.09l-.88-1.58-.99.42-1.65 3.47c-.03.07-.1.11-.17.11l-4.01-.01-1.25 1.64c-.02.03-.05.05-.07.06 1.15 2.56 2.52 4.52 3.84 6.1.13.16.26.31.4.46.91.97 2.21 2.3 2.94 2.8 1.2.82 1.59.97 3 .7 1.38-.26 5.89-3.36 8.95-6.13.15-.13.3-.28.46-.43.01-.01.01-.03.02-.04a.16.16 0 0 1 .09-.07c2.86-2.87 7.4-9.13 8.07-10.05-.52-.69-3.35-4.21-6.08-4.02zm2.44 9.48c1.06-1.28 1.93-2.45 2.57-3.37-.7.95-1.61 2.14-2.57 3.37zm5.48 22.5c.01-.12.03-.23.04-.35.06-.62.09-1.24.02-1.73-.03-.24-.08-.46-.15-.62a.877.877 0 0 0 -.23-.32c.04.01.1.02.16.07.06.04.12.1.18.18.12.16.2.39.26.65.12.52.11 1.17.05 1.81-.01.11-.02.21-.04.31h1.42c.01-.12.03-.23.04-.35.06-.62.09-1.24.02-1.73-.03-.24-.08-.46-.15-.62a.877.877 0 0 0 -.23-.32c.04.01.1.02.16.07.06.04.12.1.18.18.12.16.2.39.26.65.12.52.11 1.17.05 1.81-.01.11-.02.21-.04.31h1.42c.01-.12.03-.23.04-.35.06-.62.09-1.24.02-1.73-.03-.24-.08-.46-.15-.62a.877.877 0 0 0 -.23-.32c.04.01.1.02.16.07.06.04.12.1.18.18.12.16.2.39.26.65.12.52.11 1.17.05 1.81-.01.11-.02.21-.04.31h1s.22-1.18.22-1.77c0-1.04-.6-1.77-1.56-1.77h-1.71c.06-.36.12-.75.19-1.17-.02 0-.03-.01-.05-.01l-1.65-.73-1.94.86a.22.22 0 0 1 -.16 0l-1.94-.94-2.15.95c-.02.01-.05.02-.08.02s-.07-.01-.1-.03l-1.55-.91-1.21.78c-.03.02-.06.03-.09.03l.36 4.7h8.71zm-23.13-3.54h-.68c-.97 0-1.56.72-1.56 1.77 0 .58.22 1.77.22 1.77h1.02c-.01-.1-.03-.21-.04-.31-.06-.63-.07-1.28.05-1.81.06-.26.14-.49.26-.65.06-.08.12-.14.18-.18s.11-.05.16-.07c-.07.07-.16.16-.23.32s-.12.37-.15.62c-.06.49-.03 1.11.02 1.73.01.12.03.23.04.35h1.42c-.01-.1-.03-.21-.04-.31-.06-.63-.07-1.28.05-1.81.06-.26.14-.49.26-.65.06-.08.12-.14.18-.18s.11-.05.16-.07c-.07.07-.16.16-.23.32s-.12.37-.15.62c-.06.49-.03 1.11.02 1.73.01.12.03.23.04.35h1.42c-.01-.1-.03-.21-.04-.31-.06-.63-.07-1.28.05-1.81.06-.26.14-.49.26-.65.06-.08.12-.14.18-.18s.11-.05.16-.07c-.07.07-.16.16-.23.32s-.12.37-.15.62c-.06.49-.03 1.11.02 1.73.01.12.03.23.04.35h7.72l.27-4.04c-.03 0-.06-.01-.09-.03l-1.8-1.07-2.04.93a.19.19 0 0 1 -.18-.01l-1.75-1.07-2 .89c-.06.03-.12.02-.18-.01l-1.56-.92-1.34.61c-.01.01-.02.01-.04.01l.28 1.17c.02 0 .01 0 0 0z" fill="#f8c9b0"/><path d="m49.09 69.94c.06-.63.07-1.28-.05-1.81-.06-.26-.14-.49-.26-.65a.764.764 0 0 0 -.18-.18c-.06-.04-.11-.05-.16-.07.07.07.16.16.23.32s.12.37.15.62c.06.49.03 1.11-.02 1.73-.01.12-.03.23-.04.35 0 .03-.01.05-.01.08h.3c0-.03.01-.05.01-.08zm1.71 0c.06-.63.07-1.28-.05-1.81-.06-.26-.14-.49-.26-.65a.764.764 0 0 0 -.18-.18c-.06-.04-.11-.05-.16-.07.07.07.16.16.23.32s.12.37.15.62c.06.49.03 1.11-.02 1.73-.01.12-.03.23-.04.35 0 .03-.01.05-.01.08h.3c0-.03.01-.05.01-.08zm-3.42 0c.06-.63.07-1.28-.05-1.81-.06-.26-.14-.49-.26-.65a.764.764 0 0 0 -.18-.18c-.06-.04-.11-.05-.16-.07.07.07.16.16.23.32s.12.37.15.62c.06.49.03 1.11-.02 1.73-.01.12-.03.23-.04.35 0 .03-.01.05-.01.08h.3c0-.03.01-.05.01-.08 0-.1.02-.21.03-.31zm-20.78-.04c-.06-.62-.09-1.24-.02-1.73.03-.24.08-.46.15-.62s.16-.26.23-.32c-.04.01-.1.02-.16.07-.06.04-.12.1-.18.18-.12.16-.2.39-.26.65-.12.52-.11 1.17-.05 1.81.01.11.02.21.04.31 0 .03.01.05.01.08h.3c0-.03-.01-.05-.01-.08-.03-.12-.04-.23-.05-.35zm-3.43 0c-.06-.62-.09-1.24-.02-1.73.03-.24.08-.46.15-.62s.16-.26.23-.32c-.04.01-.1.02-.16.07-.06.04-.12.1-.18.18-.12.16-.2.39-.26.65-.12.52-.11 1.17-.05 1.81.01.11.02.21.04.31 0 .03.01.05.01.08h.3c0-.03-.01-.05-.01-.08-.02-.12-.04-.23-.05-.35zm1.71 0c-.06-.62-.09-1.24-.02-1.73.03-.24.08-.46.15-.62s.16-.26.23-.32c-.04.01-.1.02-.16.07-.06.04-.12.1-.18.18-.12.16-.2.39-.26.65-.12.52-.11 1.17-.05 1.81.01.11.02.21.04.31 0 .03.01.05.01.08h.3c0-.03-.01-.05-.01-.08-.02-.12-.03-.23-.05-.35zm24.61-30.67c-.84-2.09-1.7-3.26-1.75-3.32-.06-.09-.19-.1-.27-.04-.09.06-.1.18-.04.27.01.02.97 1.32 1.84 3.59 0-.03.01-.07.03-.1 0-.01.08-.15.19-.4zm.13.6c-.04.06-.1.09-.16.09-.03 0-.07-.01-.1-.03-.02-.01-.03-.02-.04-.03.18.47.35.99.51 1.54.13 0 .27-.01.4-.01-.17-.6-.35-1.15-.54-1.66-.04.06-.06.09-.07.1z"/><path d="m49.36 39.89c.03.02.07.03.1.03.06 0 .13-.03.16-.09 0-.01.03-.04.06-.1.18-.34.71-1.48.64-3.15 0-.11-.1-.19-.2-.19-.11 0-.19.09-.19.2.05 1.22-.24 2.14-.45 2.64-.11.25-.19.4-.19.4a.19.19 0 0 0 .02.23c.02.01.03.02.05.03z"/><path d="m29.16 39.12c.89-.37 1.63-.41 2.05-.38-.31-.49-.69-1.01-1.14-1.48-.3-.31-.7-.47-1.22-.47-1.85 0-4.46 2-5.06 2.48l1.28 2.28c.58-.39 2.89-1.92 4.09-2.43z" fill="#f8c9b0"/><path d="m32.14 40.58c-.1-.25-.32-.79-.68-1.42-.21-.04-1.05-.14-2.15.32-1.17.49-3.53 2.06-4.05 2.41l1.51 2.7c.83-.66 4.22-3.37 5.37-4.01z" fill="#f8c9b0"/><path d="m26.59 44.74c.08-.07.2-.05.27.03s.05.2-.03.27c.05-.04 4.57-3.69 5.62-4.18-.08.03-.18 0-.23-.07a.202.202 0 0 1 .05-.27c.02-.01.09-.06.2-.13-.23-.58-.91-2.12-2.13-3.39-.38-.39-.88-.58-1.5-.58 0 .07-.05.14-.12.17-.02.01-.05.02-.08.02-.08 0-.15-.04-.18-.12-.01-.01-.01-.03-.02-.04-.75.09-1.56.41-2.31.81.01.03.03.05.04.08.05.1.01.21-.09.26a.31.31 0 0 1 -.08.02c-.07 0-.14-.04-.17-.11l-.03-.06c-1.29.73-2.32 1.59-2.39 1.65s-.09.16-.04.24l1.46 2.62.55.99.05-.02c.1-.04.21 0 .25.1s0 .21-.1.25h-.01l.88 1.58c.06-.05.1-.09.14-.12zm-1.33-2.85c-.07.04-.1.07-.11.07a.15.15 0 0 1 -.11.04c-.06 0-.12-.03-.16-.08a.193.193 0 0 1 .05-.27c.01-.01.06-.04.14-.09l-1.28-2.28c.59-.48 3.2-2.48 5.06-2.48.52 0 .92.15 1.22.47.46.47.84.99 1.14 1.48.23.01.38.05.39.05.1.03.17.13.14.23s-.13.17-.23.14c0 0-.02 0-.05-.01.36.63.58 1.17.68 1.42-1.15.64-4.54 3.35-5.37 4.01z"/><path d="m29.31 39.48c1.1-.46 1.94-.36 2.15-.32.03.01.05.01.05.01.1.03.21-.04.23-.14.03-.1-.04-.21-.14-.23-.02 0-.16-.04-.39-.05-.42-.03-1.16.01-2.05.38-1.2.5-3.51 2.03-4.09 2.43-.07.05-.12.08-.14.09-.09.06-.11.18-.05.27.04.06.1.08.16.08.04 0 .08-.01.11-.03 0 0 .04-.03.11-.07.52-.36 2.88-1.93 4.05-2.42z"/><path d="m42.28 17.3c-.14-.08-.33-.09-.54-.05-.23.22-.42.39-.54.48l.8 1.74c.4.14.87.26 1.38.39.09.02.19.05.29.07-.36-.94-.97-2.4-1.39-2.63z" fill="#f8c9b0"/><path d="m35.27 19.17c-.46-.13-1.02-1.86-.66-2.19.28-.26 2.83-1 4.14-1.21-.73-1.39-1.54-2.83-2.4-3.46-.44-.32-.81-.47-1.16-.47-.77 0-1.54.75-2.43 2.37-.01.02-.03.04-.05.06l-.04.08-.08-.05c-.02 0-.05-.01-.07-.02-1.61-.99-3.11-1.5-4.47-1.5-.98 0-1.89.25-2.8.76-.7 1.81.27 4.52 1.2 7.15 1.13 3.19 2.3 6.5.41 8.19-.02.02-.04.03-.06.04l-.06.05-.05-.05a.21.21 0 0 1 -.06-.04c-.28-.28-.64-1.04-1-1.92-.28.27-.59.34-.86.19-.44-.24-.28-1.52-.15-2.25-.34.2-.79.38-.99.13-.07-.09-.29-.36.32-1.58-1.59.56-3.35 1.66-3.13 2.65.29 1.3.91 3.01 1.3 3.59.43.64 1.15.97 2.12.97.77 0 1.71-.2 2.79-.6.02-.01.04-.01.06-.01.03 0 .05.01.08.02.04.02.07.06.09.11 1.25 4.48 4.56 7.05 9.07 7.05 1.93 0 4.03-.47 6.24-1.4 5.75-2.4 7-5.88 7.23-7.74.3-2.45-.75-4.84-2.83-6.39-1.15-.86-2.49-1.19-3.67-1.48-.99-.24-1.84-.45-2.38-.92-.33-.28-.66-.76-1-1.34-.83.41-4.23 1.33-4.65 1.21zm7.84 1.9c.2.69-.71 1.58-2.02 1.99-1.32.41-2.55.18-2.75-.51s.71-1.58 2.02-1.99c1.32-.4 2.55-.18 2.75.51zm-11.68 9.26c.73 2.08 3.57 2.36 5.1 1.96-3.06 1.44-5.14-.22-5.1-1.96zm3.77-6.26c.25.68-.89 1.71-2.54 2.3-1.66.59-3.21.51-3.46-.18-.25-.68.89-1.71 2.54-2.3s3.2-.51 3.46.18zm-2.42-1.13c.03-.01.06-.03.09-.05.12-.07.23-.17.32-.27.19-.21.31-.47.36-.7.05-.25.02-.48 0-.68-.03-.2-.06-.36-.07-.47.07.08.17.22.25.42.04.1.08.21.11.34l.03.2c0 .04 0 .08.01.12v.1c-.03.32-.15.64-.37.92-.11.14-.25.27-.41.37-.04.02-.08.05-.12.07s-.1.05-.13.06l-.06.02c-.03.01-.05.02-.07.02-.05.02-.09.03-.14.04-.38.08-.76.02-1.08-.12-.16-.07-.31-.16-.44-.26s-.23-.22-.32-.33c-.18-.23-.29-.46-.37-.64-.08-.19-.12-.34-.13-.44.08.07.18.19.3.35.12.15.27.34.45.52.09.09.19.17.31.25.11.07.23.14.37.18.26.1.56.13.84.07l.1-.03c.01 0 .04-.01.04-.01l.06-.02c.02-.01.04-.02.07-.03zm-5.35-4.44c.01-.49 3.08-3.66 3.55-3.83.46-.17 1.88 1.48 1.78 1.96-.1.47-3.3 3.48-3.73 3.53-.45.06-1.61-1.16-1.6-1.66zm9.2 1.44c.12.13.25.28.42.43s.35.29.59.39c.21.08.48.13.73.11s.49-.1.66-.25l.03-.03.01-.01c-.01.02 0 0-.01.01l.02-.02.07-.07c.01-.02.03-.04.04-.06s.03-.05.04-.07c.05-.09.09-.2.11-.3.04-.21.04-.42.03-.59-.01-.18-.02-.32-.01-.42.06.08.13.21.19.38s.12.4.11.67c-.01.13-.04.28-.1.42-.02.03-.03.07-.05.11s-.05.07-.07.11c-.02.03-.04.05-.06.08l-.02.02-.01.01-.01.01-.01.01-.04.04c-.24.23-.57.35-.9.38-.33.02-.65-.03-.94-.17a2.04 2.04 0 0 1 -.65-.53c-.16-.2-.26-.39-.34-.55-.07-.16-.12-.29-.13-.38.09.05.18.14.3.27z" fill="#f8c9b0"/><path d="m30.26 35.54c.66.53 1.38.95 2.16 1.27.29.12.58.22.88.31.94.28 1.94.42 3.02.42 1.97 0 4.12-.48 6.38-1.42.01 0 .01-.01.02-.01.18-.07.35-.15.52-.23 2.97-1.34 4.69-2.98 5.67-4.49.03-.04.06-.09.08-.13.75-1.21 1.05-2.34 1.15-3.16v-.01c.01-.05.01-.1.02-.15 0-.04.01-.09.01-.13 0-.06.01-.12.01-.18 0-.04 0-.09.01-.13 0-.07 0-.15.01-.22v-.23-.05c-.07-2.18-1.15-4.21-3.01-5.6-1.05-.79-2.23-1.14-3.32-1.42-.06-.02-.12-.03-.18-.05-.1-.02-.19-.05-.29-.07-.51-.13-.98-.24-1.38-.39l.19.42-.35-.13c-.4-.15-.69-.31-.91-.5-.33-.28-.66-.76-.99-1.33l-.01.01c.34.58.67 1.05 1 1.34.54.47 1.39.68 2.38.92 1.18.29 2.52.62 3.67 1.48 2.07 1.55 3.13 3.94 2.83 6.39-.23 1.86-1.47 5.34-7.23 7.74-2.22.93-4.32 1.4-6.24 1.4-4.52 0-7.82-2.57-9.07-7.05a.144.144 0 0 0 -.09-.11.188.188 0 0 0 -.08-.02c-.02 0-.04 0-.06.01-1.08.4-2.02.6-2.79.6-.97 0-1.68-.33-2.12-.97-.39-.58-1.01-2.29-1.3-3.59-.22-.99 1.54-2.09 3.13-2.65 0-.01.01-.02.01-.03-.59.19-1.79.64-2.47 1.25l-.17-.19c-.02.01-.03.03-.05.04-.57.5-.92 1.07-.79 1.65.27 1.2.9 3.04 1.35 3.7.5.74 1.31 1.12 2.4 1.12.77 0 1.69-.19 2.74-.56.05.18.11.35.17.52.02.05.03.1.05.15.62 1.83 1.67 3.36 3.04 4.46z"/><path d="m26.45 20.68c-.93-2.62-1.89-5.34-1.2-7.15.9-.51 1.82-.76 2.8-.76 1.36 0 2.87.5 4.47 1.5.02.01.05.02.07.02l-.06-.04c-2.76-1.71-5.15-1.95-7.29-.73-.7 1.82.26 4.53 1.19 7.16 1.13 3.19 2.3 6.49.42 8.17l-.05.05a.21.21 0 0 0 .06-.04c1.89-1.69.72-4.99-.41-8.18zm6.32-6.48c.88-1.62 1.66-2.37 2.43-2.37.35 0 .72.15 1.16.47.86.63 1.67 2.07 2.4 3.46h.02c-.73-1.39-1.55-2.84-2.41-3.47-.55-.4-1-.54-1.44-.44-.68.15-1.39.92-2.17 2.35l-.03.06c.01-.02.02-.04.04-.06zm-6.09 14.7-.05-.05c-.25-.25-.58-.88-1-1.92l-.01.01c.36.88.73 1.65 1 1.92.02.02.04.03.06.04z"/><path d="m31.74 23.89c-1.66.59-2.8 1.61-2.54 2.3.25.68 1.8.76 3.46.18 1.66-.59 2.8-1.61 2.54-2.3s-1.81-.77-3.46-.18zm-.5 1.57c-.03.12-.1.25-.19.36-.18.22-.4.38-.5.39.02-.09.21-.29.37-.49.08-.1.15-.21.2-.3s.07-.18.09-.22c.04.04.06.14.03.26zm.66-.03c-.06.12-.15.23-.23.31-.09.08-.17.11-.22.11.02-.05.07-.11.13-.19.06-.09.12-.19.18-.3.05-.11.1-.22.13-.32.01-.05.03-.09.03-.13.01-.04.01-.07.03-.09.02.02.04.04.05.08s.02.09.02.15c-.02.12-.05.26-.12.38zm.84-.43c-.01.13-.05.26-.11.35a.39.39 0 0 1 -.17.17c0-.05.03-.12.06-.21.02-.09.05-.21.06-.32.03-.23 0-.45.02-.54.08.03.17.29.14.55z" fill="#f8c9b0"/><path d="m31.74 23.89c-1.66.59-2.8 1.61-2.54 2.3.25.68 1.8.76 3.46.18 1.66-.59 2.8-1.61 2.54-2.3s-1.81-.77-3.46-.18zm-.5 1.57c-.03.12-.1.25-.19.36-.18.22-.4.38-.5.39.02-.09.21-.29.37-.49.08-.1.15-.21.2-.3s.07-.18.09-.22c.04.04.06.14.03.26zm.66-.03c-.06.12-.15.23-.23.31-.09.08-.17.11-.22.11.02-.05.07-.11.13-.19.06-.09.12-.19.18-.3.05-.11.1-.22.13-.32.01-.05.03-.09.03-.13.01-.04.01-.07.03-.09.02.02.04.04.05.08s.02.09.02.15c-.02.12-.05.26-.12.38zm.84-.43c-.01.13-.05.26-.11.35a.39.39 0 0 1 -.17.17c0-.05.03-.12.06-.21.02-.09.05-.21.06-.32.03-.23 0-.45.02-.54.08.03.17.29.14.55z" fill="url(#a)"/><path d="m38.34 22.56c.2.69 1.43.92 2.75.51s2.22-1.3 2.02-1.99-1.43-.92-2.75-.51c-1.31.41-2.22 1.3-2.02 1.99zm3.09-1.53c.08.01.21.1.36.17.15.08.31.11.37.16-.03.03-.09.05-.17.05s-.18-.02-.27-.06c-.18-.08-.31-.25-.29-.32zm-.5.01c.02.01.04.04.06.07s.05.06.08.1c.06.07.14.15.23.22.18.14.39.28.43.36-.09.01-.33-.07-.54-.23a.898.898 0 0 1 -.24-.28.43.43 0 0 1 -.04-.14c.01-.05.01-.08.02-.1zm-.29.68c.11.09.22.16.33.22.1.06.19.09.23.13-.05.02-.15.03-.28-.01-.12-.03-.26-.11-.38-.2-.12-.1-.22-.22-.28-.33a.585.585 0 0 1 -.06-.15c-.01-.04-.01-.08-.01-.11.02.01.05.04.08.07s.06.07.1.11c.07.09.16.18.27.27z" fill="#f8c9b0"/><path d="m38.34 22.56c.2.69 1.43.92 2.75.51s2.22-1.3 2.02-1.99-1.43-.92-2.75-.51c-1.31.41-2.22 1.3-2.02 1.99zm3.09-1.53c.08.01.21.1.36.17.15.08.31.11.37.16-.03.03-.09.05-.17.05s-.18-.02-.27-.06c-.18-.08-.31-.25-.29-.32zm-.5.01c.02.01.04.04.06.07s.05.06.08.1c.06.07.14.15.23.22.18.14.39.28.43.36-.09.01-.33-.07-.54-.23a.898.898 0 0 1 -.24-.28.43.43 0 0 1 -.04-.14c.01-.05.01-.08.02-.1zm-.29.68c.11.09.22.16.33.22.1.06.19.09.23.13-.05.02-.15.03-.28-.01-.12-.03-.26-.11-.38-.2-.12-.1-.22-.22-.28-.33a.585.585 0 0 1 -.06-.15c-.01-.04-.01-.08-.01-.11.02.01.05.04.08.07s.06.07.1.11c.07.09.16.18.27.27z" fill="url(#b)"/><path d="m31.43 30.33c-.03 1.73 2.05 3.4 5.1 1.96-1.53.4-4.38.13-5.1-1.96z" fill="#79432f"/><path d="m32.63 23s-.03.01-.04.01l-.1.03a1.5 1.5 0 0 1 -.84-.07c-.13-.05-.26-.11-.37-.18-.11-.08-.21-.16-.31-.25-.18-.18-.33-.37-.45-.52-.12-.16-.22-.28-.3-.35.01.1.06.25.13.44.08.19.19.41.37.64.09.11.2.23.32.33.13.1.28.2.44.26.32.14.71.2 1.08.12.05-.01.09-.02.14-.04.03-.01.04-.01.07-.02l.06-.02c.04-.01.09-.04.13-.06.05-.02.08-.05.12-.07.16-.1.3-.23.41-.37.22-.28.35-.6.37-.92v-.1c0-.04 0-.08-.01-.12l-.03-.2c-.03-.13-.07-.24-.11-.34-.08-.2-.17-.34-.25-.42.01.11.04.27.07.47.02.2.05.44 0 .68-.05.23-.18.49-.36.7a1.39 1.39 0 0 1 -.41.32c-.03.01-.05.03-.1.04zm4.18-2.4c.16.19.38.4.65.53.29.14.61.19.94.17.32-.03.65-.15.9-.38l.04-.04.01-.01.01-.01.01-.01.02-.02c.02-.03.04-.05.06-.08.02-.04.05-.07.07-.11s.03-.07.05-.11c.06-.14.09-.29.1-.42.01-.27-.05-.49-.11-.67-.06-.17-.13-.3-.19-.38-.01.1 0 .24.01.42.01.17.02.38-.03.59-.02.1-.06.21-.11.3-.01.02-.03.05-.04.07-.02.02-.03.04-.04.06-.02.02-.04.05-.07.07l-.02.02.01-.01-.01.01-.03.03c-.17.14-.41.23-.66.25s-.52-.02-.73-.11a2.02 2.02 0 0 1 -.59-.39c-.16-.15-.3-.31-.42-.43-.12-.13-.21-.23-.29-.28.01.09.05.22.13.38.06.17.17.36.33.56z"/><path d="m31.12 25.42c-.05.09-.12.2-.2.3-.16.2-.35.4-.37.49.09-.01.32-.17.5-.39.09-.11.16-.24.19-.36s.01-.22-.02-.26c-.03.05-.05.13-.1.22zm.83-.6c-.01.02-.01.05-.03.09-.01.03-.02.08-.03.13-.03.1-.07.21-.13.32a1.7 1.7 0 0 1 -.18.3c-.06.09-.11.15-.13.19.05 0 .14-.04.22-.11a1.045 1.045 0 0 0 .33-.68c0-.06 0-.11-.02-.15 0-.05-.02-.07-.03-.09zm.65-.38c-.03.09 0 .31-.02.54-.01.11-.03.23-.06.32-.02.09-.05.17-.06.21.04-.01.11-.07.17-.17.05-.09.09-.22.11-.35.03-.25-.06-.51-.14-.55zm7.66-3.1c-.03-.03-.05-.06-.08-.07a.49.49 0 0 0 .07.26c.06.11.16.23.28.33a1 1 0 0 0 .38.2c.12.04.23.03.28.01-.04-.04-.13-.07-.23-.13s-.22-.13-.33-.22-.21-.18-.28-.27c-.03-.04-.06-.08-.09-.11zm.94.22c.2.16.45.24.54.23-.04-.09-.25-.22-.43-.36a1.628 1.628 0 0 1 -.31-.32c-.02-.03-.04-.05-.06-.07-.01.02-.02.05-.01.09 0 .04.02.09.04.14.04.1.13.21.23.29zm.52-.21c.09.04.19.06.27.06s.15-.03.17-.05c-.06-.05-.22-.09-.37-.16s-.28-.16-.36-.17c-.02.07.11.24.29.32z" fill="#79432f"/><path d="m24.22 22.98.35-.1-.17.32c-.58 1.07-.6 1.51-.53 1.6.08.05.49-.12.88-.39l.33-.23-.08.39c-.27 1.24-.25 2.18-.08 2.28.27.15.54-.17.64-.31l.17-.23.1.26c.46 1.16.75 1.7.93 1.94 1.56-1.58.5-4.57-.62-7.73-.96-2.71-1.95-5.51-1.17-7.43l.02-.05.05-.03c2.23-1.29 4.69-1.08 7.52.63.81-1.44 1.54-2.19 2.3-2.36.53-.12 1.07.04 1.69.5.95.69 1.77 2.18 2.56 3.68.19-.02.33-.01.39.02.39.2.77 1.42.65 1.93.34.59.67 1.08.99 1.35.12.11.27.2.45.29l-.77-1.68.1-.08c.02-.01 1.73-1.33 1.94-2.71.1-.62-.03-.83-.11-.9-.04-.04-.1-.05-.15-.05-.16.02-.36.1-.6.25 1.25-2.5 0-5.55-1.04-6.03-.9.42-1.73 2.18-1.73 2.18.21-2.6-2.01-6.28-4.99-7.04-1.53.55-1.25 3.61-1.32 3.78-.56-1.91-4.48-6.38-7.98-5.03-.76 2.98 2.85 6.87 2.85 6.87-2.84-2.43-7.84-2.91-9.71-.76.52 2.15 3.12 4.16 4.27 4.58-3.23.1-6.28 1.46-6.71 3.5 1.47 1.43 5.25 1.18 5.25 1.18s-4.27 3.23-3.95 6.45c1.03.78 2.85.73 4.44.51 1-.83 2.76-1.32 2.84-1.35z" fill="#79432f"/><path d="m29.02 20.17c.43-.06 3.63-3.06 3.73-3.53s-1.32-2.12-1.78-1.96c-.46.17-3.54 3.34-3.55 3.83 0 .49 1.16 1.71 1.6 1.66zm9.75-4.41h-.02c-1.31.21-3.86.95-4.14 1.21-.36.33.2 2.06.66 2.19.42.12 3.81-.8 4.65-1.24.01 0 .01-.01.01-.01-.29-.5-.59-1.07-.9-1.66-.08-.16-.17-.32-.26-.49zm.73-.02c-.06-.03-.2-.04-.39-.02l.21.39c.29.55.57 1.08.84 1.55.1-.5-.27-1.72-.66-1.92zm-12.64 29.03c-.07-.08-.19-.1-.27-.03-.04.04-.09.07-.13.1-1.08.86-1.44 1.08-1.44 1.09-.09.05-.12.17-.07.27a.196.196 0 0 0 .27.06c.02-.01.4-.24 1.62-1.22a.19.19 0 0 0 .02-.27zm7.89 21.08-.09-.05-1.8-1.07a.19.19 0 0 0 -.18-.01l-2.04.93-1.75-1.07a.19.19 0 0 0 -.18-.01l-2.01.9-1.56-.92a.19.19 0 0 0 -.18-.01l-1.41.64-.03.01c-.05.02-.09.07-.1.12a.23.23 0 0 0 .01.14c.01.02.02.04.04.05.04.05.11.07.17.06h.01c.01 0 .02-.01.04-.01l1.34-.61 1.56.92c.05.03.12.04.18.01l2-.89 1.75 1.07c.05.03.12.04.18.01l2.04-.93 1.8 1.07c.03.02.06.02.09.03h.01c.06 0 .11-.03.15-.07l.02-.02c.04-.07.03-.15-.01-.21-.01-.05-.03-.07-.05-.08zm14.16-.72-1.62-.72a.22.22 0 0 0 -.16 0l-1.94.86-1.94-.93c-.05-.02-.11-.03-.16 0l-2.16.93-1.56-.92a.182.182 0 0 0 -.2 0l-1.23.79-.08.05c-.03.02-.05.04-.06.07-.04.06-.04.14 0 .2 0 .01.01.01.02.02.04.05.1.07.16.07.03 0 .06-.01.09-.03l1.21-.78 1.55.91c.03.02.06.03.1.03.03 0 .05-.01.08-.02l2.17-.94 1.94.94c.05.02.11.03.16 0l1.94-.86 1.65.73c.02.01.03.01.05.01.06.01.12-.01.17-.05.02-.02.03-.04.04-.06a.22.22 0 0 0 0-.16s0-.01-.01-.01a.12.12 0 0 0 -.05-.05c-.01-.01-.03-.02-.04-.03zm1.31-23.74c-.13 0-.27 0-.4.01-2.1.06-3.82.51-4.31.65-.23-.31-.94-1.21-1.93-2.1-.51-.46-1-.84-1.48-1.15-.12-.07-.23-.14-.35-.21-.94-.53-1.82-.77-2.66-.71-1.35.1-2.75.57-3.94 1.09-.13.06-.27.12-.39.18-1.07.5-1.91 1-2.28 1.23-.12.07-.19.12-.2.13-.09.06-.11.18-.05.27.05.08.15.11.23.07.01-.01.03-.01.04-.02.04-.02 3.57-2.35 6.63-2.57 2.73-.19 5.56 3.33 6.08 4.01.05-.07.08-.11.08-.12.06-.09.18-.11.27-.05s.11.18.05.27c0 0-.02.02-.04.05.02-.01.04-.01.07-.02.4-.11 1.67-.44 3.28-.57 1.75-.15 4.27-.09 6.38 1 .04.02.08.04.13.07.03.02.06.02.09.02.04 0 .08-.01.11-.03s.05-.04.06-.07c.05-.09.02-.21-.08-.26-.12-.07-.24-.13-.37-.19-.06-.03-.12-.05-.18-.08-1.57-.69-3.29-.91-4.84-.9zm.45 15.37c-.14 0-.29 0-.43-.01h-.17c-6.04-.21-11.45-3.53-12.56-4.25l-.28.28c.79.52 4.61 2.92 9.37 3.92.12.03.25.05.37.08 1.02.2 2.08.33 3.15.36h.55c.11 0 .19-.09.19-.19 0-.04-.02-.08-.04-.12a.18.18 0 0 0 -.15-.07zm-13.64-4.36c-.01.01-.02.03-.02.04l.11-.11c-.03.02-.06.04-.09.07z"/><path d="m24.39 58.63c.24.17.46.3.65.42.13.08.26.15.38.2.38.18.73.26 1.15.26.31 0 .67-.04 1.11-.13 1.46-.28 5.51-3.1 8.36-5.54.1-.08.19-.16.28-.24l.5-.44c.13-.12.27-.25.41-.39.09-.09.19-.18.28-.28 1.21-1.23 2.69-3.02 4.05-4.74a173.265 173.265 0 0 0 3.86-5.13c.06-.08.1-.14.13-.18.02-.03.04-.05.04-.05.06-.09.04-.21-.05-.27a.193.193 0 0 0 -.27.05c0 .01-.03.05-.08.12-.67.93-5.21 7.18-8.07 10.05l-.11.11c-.16.16-.31.3-.46.43-3.06 2.77-7.57 5.87-8.95 6.13-1.41.27-1.8.12-3-.7-.73-.5-2.03-1.83-2.94-2.8l-.38-.41c-.37-.41-.62-.68-.63-.69-.04-.04-.1-.07-.15-.06-.04 0-.09.02-.12.05a.19.19 0 0 0 -.02.27c.04.04.39.43.88.96.07.07.14.15.21.22.92.97 2.19 2.27 2.94 2.78zm-7.04-9.66c.03 0 .05-.01.08-.02s.05-.03.07-.06l1.25-1.64 4.01.01c.07 0 .14-.04.17-.11l1.65-3.47.99-.42h.01c.1-.04.14-.15.1-.25s-.15-.14-.25-.1l-.05.02-1.02.43c-.04.02-.08.05-.1.09l-.69 1.45-.94 1.98-3.98-.01c-.06 0-.12.03-.15.08l-1.24 1.63-.07.09c-.02.02-.03.05-.03.07-.01.07.01.13.06.18l.01.01c.04.02.08.04.12.04zm24.99-35.21.01.03.05.13s.1-.04.2-.03c.05 0 .1.02.15.05.08.07.21.27.11.9-.21 1.38-1.93 2.7-1.94 2.71l-.1.08.77 1.68c-.18-.09-.33-.19-.45-.29-.31-.27-.64-.76-.99-1.35-.27-.47-.55-1-.84-1.55l-.21-.39c-.79-1.51-1.61-2.99-2.56-3.68-.62-.46-1.16-.61-1.69-.5-.76.17-1.49.92-2.3 2.36-2.83-1.71-5.29-1.91-7.52-.63l-.05.03-.02.05c-.78 1.93.21 4.73 1.17 7.43 1.12 3.16 2.18 6.15.62 7.73-.18-.24-.47-.78-.93-1.94l-.1-.26-.17.23c-.1.14-.37.46-.64.31-.18-.1-.19-1.04.08-2.28l.08-.39-.33.23c-.39.28-.81.44-.88.39-.07-.09-.04-.53.53-1.6l.17-.32-.35.1c-.08.02-1.84.51-2.85 1.34-.03.03-.07.05-.1.08l.04.05.17.19c.69-.61 1.88-1.05 2.47-1.25 0 .01-.01.02-.01.03-.6 1.22-.39 1.49-.32 1.58.2.25.65.07.99-.13-.13.73-.29 2.01.15 2.25.27.15.58.08.86-.19l.01-.01c.43 1.04.75 1.67 1 1.92l.05.05.05.05.06-.05.05-.05c1.88-1.69.72-4.99-.42-8.17-.93-2.63-1.9-5.35-1.19-7.16 2.14-1.21 4.53-.97 7.29.73l.06.04.08.05.04-.08.03-.06c.78-1.43 1.49-2.2 2.17-2.35.43-.1.89.04 1.44.44.87.63 1.68 2.08 2.41 3.47.09.17.18.33.26.5.31.59.61 1.16.9 1.66.34.58.67 1.05.99 1.33.23.2.52.36.91.5l.35.13-.15-.42-.8-1.74c.11-.09.31-.26.54-.48.38-.37.84-.9 1.14-1.5l.03-.06c.02-.03.03-.06.04-.09s.03-.07.04-.1c.08-.19.14-.39.17-.6.06-.42.04-.73-.06-.95-.04-.1-.1-.18-.18-.23-.19-.15-.41-.13-.54-.1-.07.01-.11.03-.12.03l.08.12zm-19.56 18.74c.01 0 .01 0 0 0 .02.03 2.07 2.99 3.03 4.93l.03.06c.03.07.1.11.17.11.03 0 .06-.01.08-.02.1-.05.14-.16.09-.26-.01-.03-.03-.05-.04-.08-.9-1.83-2.76-4.54-3.02-4.91-.02-.03-.03-.04-.03-.04-.01-.02-.03-.03-.04-.04a.195.195 0 0 0 -.23-.01c-.04.03-.06.07-.08.11.01.04.01.1.04.15zm5.68 3.93c.01.01.01.03.02.04.03.07.1.12.18.12.03 0 .05-.01.08-.02.07-.03.11-.1.12-.17 0-.03 0-.06-.01-.09-.56-1.3-2.36-3.87-3.03-4.8-.03-.05-.07-.09-.1-.13-.08-.12-.14-.19-.15-.21-.06-.09-.18-.1-.27-.04s-.11.18-.04.27l.08.11c.02.02.03.05.06.08.51.73 2.47 3.49 3.06 4.84z"/></svg>