<svg enable-background="new 0 0 72 72" viewBox="0 0 72 72" xmlns="http://www.w3.org/2000/svg"><path d="m30.4 9.9c.3-.3.6-.4.9-.4 11.2-1.3 11.1 7.4 10.7 10.6 0 .4-.2.7-.4 1-.3.3-.7.4-1.1.4-3.3.4-11.8.4-10.6-10.6 0-.4.2-.8.5-1z" fill="#a66d4e"/><path d="m29.9 11c0-.4.1-.8.4-1.1s.6-.4.9-.4h.2c-1.2 10.8 7.1 10.9 10.5 10.5v.2c0 .4-.2.7-.4 1-.3.3-.7.4-1.1.4-3.2.3-11.7.3-10.5-10.6z" fill="#936145"/><path d="m36.3 9.6-3.1 3.1-1.3-1.3 2.1-2.1c.9.1 1.6.2 2.3.3z" fill="#c69c6d"/><path d="m41.8 15.2c.2.8.3 1.5.3 2.2l-2.1 2.2-1.3-1.3z" fill="#c69c6d"/><path d="m31.8 19.6c2.6 2.6 6.6 2.5 8.7 2.2.5 0 .9-.2 1.2-.5s.5-.7.5-1.1c.3-2.2.3-6.2-2.2-8.8-1.9-1.9-4.8-2.7-8.8-2.3-.4 0-.8.2-1.1.5s-.5.8-.5 1.3c-.4 3.9.4 6.8 2.2 8.7zm10 .5c0 .4-.2.6-.3.8-.2.2-.5.3-.9.3-2.1.3-5.9.3-8.3-2-1.7-1.7-2.4-4.5-2-8.2 0-.4.1-.7.3-.9s.5-.3.8-.3c3.7-.4 6.5.3 8.3 2.1 2.4 2.3 2.3 6.1 2.1 8.2z" fill="#231f20"/><path d="m41.6 21.1-11.2-11.2" fill="none" stroke="#231f20" stroke-linejoin="round" stroke-miterlimit="10" stroke-width=".6"/><ellipse cx="36" cy="66.8" fill="#ccc" rx="25.3" ry="3"/><path d="m41.2 34.4c.2 2 1.8 3.5 3.8 3.5s3.6-1.5 3.8-3.5z" fill="#a66d4e"/><path d="m46.8 34.4h2c-.2 2-1.8 3.5-3.8 3.5-.3 0-.7-.1-1-.1 1.5-.4 2.7-1.8 2.8-3.4z" fill="#936145"/><path d="m41.2 34.4c.2 2 1.8 3.5 3.8 3.5s3.6-1.5 3.8-3.5z" fill="none" stroke="#231f20" stroke-miterlimit="10" stroke-width=".7"/><path d="m38.1 66.8h2.6l1.2-13.5h-3.8z" fill="#a66d4e"/><path d="m33.9 66.8h-2.6l-1.2-13.5h3.8z" fill="#a66d4e"/><path d="m38.1 57.6v-4.3h3.8l-.4 4.3z" fill="#936145"/><path d="m33.9 57.6v-4.3h-3.8l.4 4.3z" fill="#936145"/><path d="m38.1 66.8h2.6l1.2-13.5h-3.8z" fill="none" stroke="#231f20" stroke-miterlimit="10" stroke-width=".7"/><path d="m38.1 64.2h2.8v2.6h-2.8z" fill="#231f20"/><path d="m33.9 66.8h-2.6l-1.2-13.5h3.8z" fill="none" stroke="#231f20" stroke-miterlimit="10" stroke-width=".7"/><path d="m31.1 64.2h2.8v2.6h-2.8z" fill="#231f20"/><path d="m39.3 55h-6.6c-2.6 0-4.7-2.4-4.2-5l1.8-10.9h11.4l1.8 10.9c.4 2.6-1.6 5-4.2 5z" fill="#a66d4e"/><path d="m43.3 49.1c-.6 1.7-2.1 2.9-4.1 2.9h-6.6c-1.9 0-3.5-1.3-4.1-2.9l-.2 1c-.4 2.6 1.6 5 4.2 5h6.6c2.6 0 4.7-2.4 4.2-5z" fill="#936145"/><path d="m39.3 55h-6.6c-2.6 0-4.7-2.4-4.2-5l1.8-10.9h11.4l1.8 10.9c.4 2.6-1.6 5-4.2 5z" fill="none" stroke="#231f20" stroke-miterlimit="10" stroke-width=".7"/><path d="m23.2 34.4c.2 2 1.8 3.5 3.8 3.5s3.6-1.5 3.8-3.5z" fill="#a66d4e"/><path d="m25.2 34.4h-2c.2 2 1.8 3.5 3.8 3.5.3 0 .7-.1 1-.1-1.5-.4-2.7-1.8-2.8-3.4z" fill="#936145"/><path d="m23.2 34.4c.2 2 1.8 3.5 3.8 3.5s3.6-1.5 3.8-3.5z" fill="none" stroke="#231f20" stroke-miterlimit="10" stroke-width=".7"/><path d="m39 26.8h11.6v-2.4-12.2-8.7c0-.7.5-1.2 1.2-1.2s1.2.5 1.2 1.2v6.4l3.1-2.1c.6-.4 1.3-.2 1.7.3.4.6.2 1.3-.3 1.7l-4.5 3v3.7l7.2-4.6c.6-.4 1.3-.2 1.7.4s.2 1.3-.4 1.7l-8.5 5.5v2.8l3.1-2.1c.6-.4 1.3-.2 1.7.3.4.6.2 1.3-.3 1.7l-4.5 3v3c0 .7-.5 1.2-1.2 1.2h-11.5v5.1c0 .7-.5 1.2-1.2 1.2s-1.2-.5-1.2-1.2v-6.3c-.1-.8.5-1.4 1.1-1.4z" fill="#fcee21"/><g fill="#cdc422"><path d="m57 20.9-4.2 2.5v-1.4l3.3-2c.6-.4 1.3-.2 1.7.3.1.1.1.2.2.3-.3 0-.6 0-1 .3z"/><path d="m57 8.6-4.2 2.8v-1.4l3.3-2.3c.6-.4 1.3-.2 1.7.3.1.1.1.2.2.3-.3 0-.6.1-1 .3z"/><path d="m61.2 12.7-8.3 5.4v-1.3l7.5-4.9c.6-.4 1.3-.2 1.7.4.1.1.1.2.1.3-.3-.2-.7-.1-1 .1z"/><path d="m39 26.8h11.6v-2.4-12.2-8.7c0-.7.5-1.2 1.2-1.2.6 0 1 .4 1.2.9-.1 0-.2-.1-.4-.1-.7 0-1.2.5-1.2 1.2v8.7 12.3 2.4h-11.5c-.7 0-1.2.5-1.2 1.2v6.3c0 .1 0 .2.1.4-.5-.2-.9-.6-.9-1.2v-6.3c-.1-.7.5-1.3 1.1-1.3z"/></g><path d="m39 26.8h11.6v-2.4-12.2-8.7c0-.7.5-1.2 1.2-1.2s1.2.5 1.2 1.2v6.4l3.1-2.1c.6-.4 1.3-.2 1.7.3.4.6.2 1.3-.3 1.7l-4.5 3v3.7l7.2-4.6c.6-.4 1.3-.2 1.7.4s.2 1.3-.4 1.7l-8.5 5.5v2.8l3.1-2.1c.6-.4 1.3-.2 1.7.3.4.6.2 1.3-.3 1.7l-4.5 3v3c0 .7-.5 1.2-1.2 1.2h-11.5v5.1c0 .7-.5 1.2-1.2 1.2s-1.2-.5-1.2-1.2v-6.3c-.1-.8.5-1.4 1.1-1.4z" fill="none" stroke="#231f20" stroke-miterlimit="10" stroke-width=".5734"/><path d="m33 26.8h-11.7v-2.4-12.2-8.7c0-.7-.5-1.2-1.2-1.2s-1.2.5-1.2 1.2v6.4l-3.1-2.1c-.6-.4-1.3-.2-1.7.3-.4.6-.2 1.3.3 1.7l4.5 3v3.7l-7.2-4.6c-.6-.4-1.3-.2-1.7.4s-.2 1.3.4 1.7l8.5 5.5v2.8l-3.1-2.3c-.6-.4-1.3-.2-1.7.3-.4.6-.2 1.3.3 1.7l4.5 3v3c0 .7.5 1.2 1.2 1.2h11.6v5.1c0 .7.5 1.2 1.2 1.2s1.2-.5 1.2-1.2v-6.3c.1-.6-.5-1.2-1.1-1.2z" fill="#fcee21"/><g fill="#cdc422"><path d="m15 20.9 4.2 2.5v-1.4l-3.3-2c-.6-.4-1.3-.2-1.7.3-.1.1-.1.2-.2.3.3 0 .6 0 1 .3z"/><path d="m15 8.6 4.2 2.8v-1.4l-3.3-2.3c-.6-.4-1.3-.2-1.7.3-.1.1-.1.2-.2.3.3 0 .6.1 1 .3z"/><path d="m10.8 12.7 8.3 5.4v-1.3l-7.5-4.9c-.6-.4-1.3-.2-1.7.4-.1.1-.1.2-.1.3.3-.2.7-.1 1 .1z"/><path d="m33 26.8h-11.7v-2.4-12.2-8.7c0-.7-.5-1.2-1.2-1.2-.6 0-1 .4-1.2.9.1 0 .2-.1.4-.1.7 0 1.2.5 1.2 1.2v8.7 12.3 2.4h11.6c.7 0 1.2.5 1.2 1.2v6.3c0 .1 0 .2-.1.4.5-.2.9-.6.9-1.2v-6.3c.1-.7-.5-1.3-1.1-1.3z"/></g><path d="m33 26.8h-11.7v-2.4-12.2-8.7c0-.7-.5-1.2-1.2-1.2s-1.2.5-1.2 1.2v6.4l-3.1-2.1c-.6-.4-1.3-.2-1.7.3-.4.6-.2 1.3.3 1.7l4.5 3v3.7l-7.2-4.6c-.6-.4-1.3-.2-1.7.4s-.2 1.3.4 1.7l8.5 5.5v2.8l-3.1-2.3c-.6-.4-1.3-.2-1.7.3-.4.6-.2 1.3.3 1.7l4.5 3v3c0 .7.5 1.2 1.2 1.2h11.6v5.1c0 .7.5 1.2 1.2 1.2s1.2-.5 1.2-1.2v-6.3c.1-.6-.5-1.2-1.1-1.2z" fill="none" stroke="#231f20" stroke-miterlimit="10" stroke-width=".5734"/><path d="m38.3 49.3h-4.6c-.8 0-1.5-.6-1.7-1.4l-2.9-11.4c-.2-1.1.6-2 1.7-2h10.3c1.1 0 1.9 1 1.7 2l-2.8 11.4c-.2.8-.9 1.4-1.7 1.4z" fill="#a66d4e"/><path d="m31.5 44.8.6 3.1c.2.8.9 1.4 1.7 1.4h4.6c.8 0 1.5-.6 1.7-1.4l.6-3.1z" fill="#c69c6d"/><path d="m31.4 44.8h9.2" fill="#eb644c" stroke="#231f20" stroke-miterlimit="10" stroke-width=".7325"/><circle cx="36" cy="44.8" fill="#eb644c" r="2.7"/><path d="m37.1 42.4c.2.4.3.8.3 1.3 0 1.5-1.2 2.7-2.7 2.7-.5 0-.9-.1-1.3-.3.5.8 1.3 1.4 2.3 1.4 1.5 0 2.7-1.2 2.7-2.7.1-1.1-.5-1.9-1.3-2.4z" fill="#c2523e"/><circle cx="36" cy="44.8" fill="none" r="2.7" stroke="#231f20" stroke-miterlimit="10" stroke-width=".7"/><path d="m36 47.4v1.9" fill="#eb644c" stroke="#231f20" stroke-miterlimit="10" stroke-width=".7"/><path d="m38.3 49.3h-4.6c-.8 0-1.5-.6-1.7-1.4l-2.9-11.4c-.2-1.1.6-2 1.7-2h10.3c1.1 0 1.9 1 1.7 2l-2.8 11.4c-.2.8-.9 1.4-1.7 1.4z" fill="none" stroke="#231f20" stroke-miterlimit="10" stroke-width=".7"/><circle cx="38" cy="39.3" fill="#231f20" r="1"/><circle cx="34" cy="39.3" fill="#231f20" r="1"/></svg>